<svg viewBox="0 0 330 200" xmlns="http://www.w3.org/2000/svg"><g><g><g><g><g><line x1="61.90000057220459" y1="177.95999908447266" x2="56.90000057220459" y2="177.95999908447266" style="visibility: inherit;" fill="rgb(0, 0, 0)" stroke="rgb(204, 204, 204)" stroke-width="1px"></line><line x1="61.90000057220459" y1="165.2485705784389" x2="56.90000057220459" y2="165.2485705784389" style="visibility: inherit;" fill="rgb(0, 0, 0)" stroke="rgb(204, 204, 204)" stroke-width="1px"></line><line x1="61.90000057220459" y1="152.53714207240512" x2="56.90000057220459" y2="152.53714207240512" style="visibility: inherit;" fill="rgb(0, 0, 0)" stroke="rgb(204, 204, 204)" stroke-width="1px"></line><line x1="61.90000057220459" y1="139.82571356637135" x2="56.90000057220459" y2="139.82571356637135" style="visibility: inherit;" fill="rgb(0, 0, 0)" stroke="rgb(204, 204, 204)" stroke-width="1px"></line><line x1="61.90000057220459" y1="127.11428506033761" x2="56.90000057220459" y2="127.11428506033761" style="visibility: inherit;" fill="rgb(0, 0, 0)" stroke="rgb(204, 204, 204)" stroke-width="1px"></line><line x1="61.90000057220459" y1="114.40285655430385" x2="56.90000057220459" y2="114.40285655430385" style="visibility: inherit;" fill="rgb(0, 0, 0)" stroke="rgb(204, 204, 204)" stroke-width="1px"></line><line x1="61.90000057220459" y1="101.69142804827007" x2="56.90000057220459" y2="101.69142804827007" style="visibility: inherit;" fill="rgb(0, 0, 0)" stroke="rgb(204, 204, 204)" stroke-width="1px"></line><line x1="61.90000057220459" y1="88.97999954223633" x2="56.90000057220459" y2="88.97999954223633" style="visibility: inherit;" fill="rgb(0, 0, 0)" stroke="rgb(204, 204, 204)" stroke-width="1px"></line><line x1="61.90000057220459" y1="76.26857103620256" x2="56.90000057220459" y2="76.26857103620256" style="visibility: inherit;" fill="rgb(0, 0, 0)" stroke="rgb(204, 204, 204)" stroke-width="1px"></line><line x1="61.90000057220459" y1="63.55714253016882" x2="56.90000057220459" y2="63.55714253016882" style="visibility: inherit;" fill="rgb(0, 0, 0)" stroke="rgb(204, 204, 204)" stroke-width="1px"></line><line x1="61.90000057220459" y1="50.84571402413505" x2="56.90000057220459" y2="50.84571402413505" style="visibility: inherit;" fill="rgb(0, 0, 0)" stroke="rgb(204, 204, 204)" stroke-width="1px"></line><line x1="61.90000057220459" y1="38.13428551810128" x2="56.90000057220459" y2="38.13428551810128" style="visibility: inherit;" fill="rgb(0, 0, 0)" stroke="rgb(204, 204, 204)" stroke-width="1px"></line><line x1="61.90000057220459" y1="25.42285701206751" x2="56.90000057220459" y2="25.42285701206751" style="visibility: inherit;" fill="rgb(0, 0, 0)" stroke="rgb(204, 204, 204)" stroke-width="1px"></line><line x1="61.90000057220459" y1="12.71142850603374" x2="56.90000057220459" y2="12.71142850603374" style="visibility: inherit;" fill="rgb(0, 0, 0)" stroke="rgb(204, 204, 204)" stroke-width="1px"></line><line x1="61.90000057220459" y1="0" x2="56.90000057220459" y2="0" style="visibility: inherit;" fill="rgb(0, 0, 0)" stroke="rgb(204, 204, 204)" stroke-width="1px"></line></g><g transform="translate(51.90000057220459, 0)"><text style="text-anchor: end; visibility: hidden; font-family: &quot;Helvetica Neue&quot;, sans-serif; font-size: 12px; font-weight: 200;" x="0" y="177.95999908447266" dx="0em" dy="0.3em" fill="rgb(50, 49, 63)" stroke="none" stroke-width="1px">-0.1</text><text style="text-anchor: end; visibility: inherit; font-family: &quot;Helvetica Neue&quot;, sans-serif; font-size: 12px; font-weight: 200;" x="0" y="165.2485705784389" dx="0em" dy="0.3em" fill="rgb(50, 49, 63)" stroke="none" stroke-width="1px">-0.05</text><text style="text-anchor: end; visibility: hidden; font-family: &quot;Helvetica Neue&quot;, sans-serif; font-size: 12px; font-weight: 200;" x="0" y="152.53714207240512" dx="0em" dy="0.3em" fill="rgb(50, 49, 63)" stroke="none" stroke-width="1px">0</text><text style="text-anchor: end; visibility: inherit; font-family: &quot;Helvetica Neue&quot;, sans-serif; font-size: 12px; font-weight: 200;" x="0" y="139.82571356637135" dx="0em" dy="0.3em" fill="rgb(50, 49, 63)" stroke="none" stroke-width="1px">0.05</text><text style="text-anchor: end; visibility: hidden; font-family: &quot;Helvetica Neue&quot;, sans-serif; font-size: 12px; font-weight: 200;" x="0" y="127.11428506033761" dx="0em" dy="0.3em" fill="rgb(50, 49, 63)" stroke="none" stroke-width="1px">0.1</text><text style="text-anchor: end; visibility: inherit; font-family: &quot;Helvetica Neue&quot;, sans-serif; font-size: 12px; font-weight: 200;" x="0" y="114.40285655430385" dx="0em" dy="0.3em" fill="rgb(50, 49, 63)" stroke="none" stroke-width="1px">0.15</text><text style="text-anchor: end; visibility: hidden; font-family: &quot;Helvetica Neue&quot;, sans-serif; font-size: 12px; font-weight: 200;" x="0" y="101.69142804827007" dx="0em" dy="0.3em" fill="rgb(50, 49, 63)" stroke="none" stroke-width="1px">0.2</text><text style="text-anchor: end; visibility: inherit; font-family: &quot;Helvetica Neue&quot;, sans-serif; font-size: 12px; font-weight: 200;" x="0" y="88.97999954223633" dx="0em" dy="0.3em" fill="rgb(50, 49, 63)" stroke="none" stroke-width="1px">0.25</text><text style="text-anchor: end; visibility: hidden; font-family: &quot;Helvetica Neue&quot;, sans-serif; font-size: 12px; font-weight: 200;" x="0" y="76.26857103620256" dx="0em" dy="0.3em" fill="rgb(50, 49, 63)" stroke="none" stroke-width="1px">0.3</text><text style="text-anchor: end; visibility: inherit; font-family: &quot;Helvetica Neue&quot;, sans-serif; font-size: 12px; font-weight: 200;" x="0" y="63.55714253016882" dx="0em" dy="0.3em" fill="rgb(50, 49, 63)" stroke="none" stroke-width="1px">0.35</text><text style="text-anchor: end; visibility: hidden; font-family: &quot;Helvetica Neue&quot;, sans-serif; font-size: 12px; font-weight: 200;" x="0" y="50.84571402413505" dx="0em" dy="0.3em" fill="rgb(50, 49, 63)" stroke="none" stroke-width="1px">0.4</text><text style="text-anchor: end; visibility: inherit; font-family: &quot;Helvetica Neue&quot;, sans-serif; font-size: 12px; font-weight: 200;" x="0" y="38.13428551810128" dx="0em" dy="0.3em" fill="rgb(50, 49, 63)" stroke="none" stroke-width="1px">0.45</text><text style="text-anchor: end; visibility: hidden; font-family: &quot;Helvetica Neue&quot;, sans-serif; font-size: 12px; font-weight: 200;" x="0" y="25.42285701206751" dx="0em" dy="0.3em" fill="rgb(50, 49, 63)" stroke="none" stroke-width="1px">0.5</text><text style="text-anchor: end; visibility: inherit; font-family: &quot;Helvetica Neue&quot;, sans-serif; font-size: 12px; font-weight: 200;" x="0" y="12.71142850603374" dx="0em" dy="0.3em" fill="rgb(50, 49, 63)" stroke="none" stroke-width="1px">0.55</text><text style="text-anchor: end; visibility: hidden; font-family: &quot;Helvetica Neue&quot;, sans-serif; font-size: 12px; font-weight: 200;" x="0" y="0" dx="0em" dy="0.3em" fill="rgb(50, 49, 63)" stroke="none" stroke-width="1px">0.6</text></g><line x1="61.90000057220459" y1="0" x2="61.90000057220459" y2="177.95999908447266" fill="rgb(0, 0, 0)" stroke="rgb(204, 204, 204)" stroke-width="1px"></line></g></g><g transform="translate(61, 0)" clip-path="url(#clip_0)"><clipPath id="clip_0"><rect width="268" height="177"></rect></clipPath><g><g><g><line x1="0" y1="0" x2="0" y2="177.95999908447266" fill="rgb(0, 0, 0)" stroke="rgb(60, 60, 60)" stroke-width="1px" opacity="0.25"></line><line x1="22.34166661898295" y1="0" x2="22.34166661898295" y2="177.95999908447266" fill="rgb(0, 0, 0)" stroke="rgb(60, 60, 60)" stroke-width="1px" opacity="0.25"></line><line x1="44.6833332379659" y1="0" x2="44.6833332379659" y2="177.95999908447266" fill="rgb(0, 0, 0)" stroke="rgb(60, 60, 60)" stroke-width="1px" opacity="0.25"></line><line x1="67.02499985694885" y1="0" x2="67.02499985694885" y2="177.95999908447266" fill="rgb(0, 0, 0)" stroke="rgb(60, 60, 60)" stroke-width="1px" opacity="0.25"></line><line x1="89.3666664759318" y1="0" x2="89.3666664759318" y2="177.95999908447266" fill="rgb(0, 0, 0)" stroke="rgb(60, 60, 60)" stroke-width="1px" opacity="0.25"></line><line x1="111.70833309491476" y1="0" x2="111.70833309491476" y2="177.95999908447266" fill="rgb(0, 0, 0)" stroke="rgb(60, 60, 60)" stroke-width="1px" opacity="0.25"></line><line x1="134.0499997138977" y1="0" x2="134.0499997138977" y2="177.95999908447266" fill="rgb(0, 0, 0)" stroke="rgb(60, 60, 60)" stroke-width="1px" opacity="0.25"></line><line x1="156.39166633288067" y1="0" x2="156.39166633288067" y2="177.95999908447266" fill="rgb(0, 0, 0)" stroke="rgb(60, 60, 60)" stroke-width="1px" opacity="0.25"></line><line x1="178.7333329518636" y1="0" x2="178.7333329518636" y2="177.95999908447266" fill="rgb(0, 0, 0)" stroke="rgb(60, 60, 60)" stroke-width="1px" opacity="0.25"></line><line x1="201.07499957084656" y1="0" x2="201.07499957084656" y2="177.95999908447266" fill="rgb(0, 0, 0)" stroke="rgb(60, 60, 60)" stroke-width="1px" opacity="0.25"></line><line x1="223.41666618982953" y1="0" x2="223.41666618982953" y2="177.95999908447266" fill="rgb(0, 0, 0)" stroke="rgb(60, 60, 60)" stroke-width="1px" opacity="0.25"></line><line x1="245.75833280881244" y1="0" x2="245.75833280881244" y2="177.95999908447266" fill="rgb(0, 0, 0)" stroke="rgb(60, 60, 60)" stroke-width="1px" opacity="0.25"></line><line x1="268.0999994277954" y1="0" x2="268.0999994277954" y2="177.95999908447266" fill="rgb(0, 0, 0)" stroke="rgb(60, 60, 60)" stroke-width="1px" opacity="0.25"></line></g><g><line x1="0" y1="177.95999908447266" x2="268.0999994277954" y2="177.95999908447266" fill="rgb(0, 0, 0)" stroke="rgb(60, 60, 60)" stroke-width="1px" opacity="0.25"></line><line x1="0" y1="165.2485705784389" x2="268.0999994277954" y2="165.2485705784389" fill="rgb(0, 0, 0)" stroke="rgb(60, 60, 60)" stroke-width="1px" opacity="0.25"></line><line x1="0" y1="152.53714207240512" x2="268.0999994277954" y2="152.53714207240512" fill="rgb(0, 0, 0)" stroke="rgb(60, 60, 60)" stroke-width="1px" opacity="0.25"></line><line x1="0" y1="139.82571356637135" x2="268.0999994277954" y2="139.82571356637135" fill="rgb(0, 0, 0)" stroke="rgb(60, 60, 60)" stroke-width="1px" opacity="0.25"></line><line x1="0" y1="127.11428506033761" x2="268.0999994277954" y2="127.11428506033761" fill="rgb(0, 0, 0)" stroke="rgb(60, 60, 60)" stroke-width="1px" opacity="0.25"></line><line x1="0" y1="114.40285655430385" x2="268.0999994277954" y2="114.40285655430385" fill="rgb(0, 0, 0)" stroke="rgb(60, 60, 60)" stroke-width="1px" opacity="0.25"></line><line x1="0" y1="101.69142804827007" x2="268.0999994277954" y2="101.69142804827007" fill="rgb(0, 0, 0)" stroke="rgb(60, 60, 60)" stroke-width="1px" opacity="0.25"></line><line x1="0" y1="88.97999954223633" x2="268.0999994277954" y2="88.97999954223633" fill="rgb(0, 0, 0)" stroke="rgb(60, 60, 60)" stroke-width="1px" opacity="0.25"></line><line x1="0" y1="76.26857103620256" x2="268.0999994277954" y2="76.26857103620256" fill="rgb(0, 0, 0)" stroke="rgb(60, 60, 60)" stroke-width="1px" opacity="0.25"></line><line x1="0" y1="63.55714253016882" x2="268.0999994277954" y2="63.55714253016882" fill="rgb(0, 0, 0)" stroke="rgb(60, 60, 60)" stroke-width="1px" opacity="0.25"></line><line x1="0" y1="50.84571402413505" x2="268.0999994277954" y2="50.84571402413505" fill="rgb(0, 0, 0)" stroke="rgb(60, 60, 60)" stroke-width="1px" opacity="0.25"></line><line x1="0" y1="38.13428551810128" x2="268.0999994277954" y2="38.13428551810128" fill="rgb(0, 0, 0)" stroke="rgb(60, 60, 60)" stroke-width="1px" opacity="0.25"></line><line x1="0" y1="25.42285701206751" x2="268.0999994277954" y2="25.42285701206751" fill="rgb(0, 0, 0)" stroke="rgb(60, 60, 60)" stroke-width="1px" opacity="0.25"></line><line x1="0" y1="12.71142850603374" x2="268.0999994277954" y2="12.71142850603374" fill="rgb(0, 0, 0)" stroke="rgb(60, 60, 60)" stroke-width="1px" opacity="0.25"></line><line x1="0" y1="0" x2="268.0999994277954" y2="0" fill="rgb(0, 0, 0)" stroke="rgb(60, 60, 60)" stroke-width="1px" opacity="0.25"></line></g></g></g><g><g><line x1="0" y1="152.53714207240512" x2="268.0999994277954" y2="152.53714207240512" fill="rgb(0, 0, 0)" stroke="rgb(153, 153, 153)" stroke-width="1.5px"></line></g></g><g><g><line x1="22.34166661898295" y1="0" x2="22.34166661898295" y2="177.95999908447266" fill="rgb(0, 0, 0)" stroke="rgb(153, 153, 153)" stroke-width="1.5px"></line></g></g><g><g><g><g><g><path style="fill: none;" stroke="rgb(51, 187, 238)" stroke-width="2px" d="M25.692916611830395,-2.1646411975125375L26.80999994277954,6.311636614345048L27.92708327372869,11.227972301213015L29.044166604677837,16.234833226469817L30.161249935626984,20.207457698677644L31.27833326657613,23.923174756817133L32.395416597525276,26.615058036188515L33.512499928474426,29.6249540232009L34.629583259423576,32.214280420514115L35.74666659037272,34.4816088176359L36.86374992132187,37.04809933710314L37.98083325227102,38.83517725209282L39.09791658322017,41.186204369375446L40.21499991416931,43.173054544207645L41.33208324511846,44.83986905871643L42.449166576067604,46.70250084692452L43.566249907016754,48.5299923559522L44.6833332379659,50.14238413968204L45.80041656891505,51.21392020342637L46.9174998998642,53.10886619834089L48.03458323081335,54.008110336996324L49.15166656176249,55.806333433243964L50.26874989271164,56.990450223237005L51.38583322366079,57.64409881432182L52.50291655460993,59.129127921677664L53.61999988555908,60.535398253250804L54.73708321650823,61.19441107841489L55.85416654745738,62.16735282284603L56.971249878406525,63.157561642795116L58.088333209355675,63.98703285541082L59.20541654030482,65.17965816923301L60.32249987125397,65.57165639351835L61.43958320220311,66.73002031396975L62.55666653315226,67.35374890451911L63.67374986410141,67.87765576626258L64.79083319505055,68.7988417437508L65.9079165259997,69.35649478994219L67.02499985694885,69.67423473991812L68.142083187898,70.61864300194449L69.25916651884715,71.29540780514215L70.3762498497963,71.65697839657098L71.49333318074544,72.31010420213111L72.61041651169458,72.93424950577985L73.72749984264374,73.5411504637161L74.84458317359288,73.84365386745834L75.96166650454204,74.09374233990047L77.07874983549118,74.83136240881115L78.19583316644034,75.34177534273651L79.31291649738948,75.68326793937707L80.42999982833862,76.00935730454421L81.54708315928777,76.5085871742026L82.66416649023692,76.93618785037857L83.78124982118607,77.27860479243957L84.89833315213521,77.61614240293693L86.01541648308437,78.12416870729314L87.13249981403351,78.30694664928276L88.24958314498265,78.7271449854934L89.3666664759318,79.25510532920354L90.48374980688095,79.42894288106105L91.6008331378301,79.7392350314608L92.71791646877925,80.03504071920575L93.8349997997284,80.23537364758197L94.95208313067755,80.59947482401432L96.0691664616267,81.02121121039174L97.18624979257584,81.3394057564761L98.30333312352498,81.3136074273236L99.42041645447414,81.8439165175939L100.53749978542328,82.08366292856961L101.65458311637242,82.31978772388162L102.77166644732158,82.54853290903371L103.88874977827072,82.79439363766758L105.00583310921986,83.22658573453853L106.122916440169,83.15675977228615L107.23999977111816,83.68687944751127L108.3570831020673,83.83718407415654L109.47416643301646,83.88276491062685L110.5912497639656,84.37794887492035L111.70833309491476,84.46858776233628L112.8254164258639,84.39698887526109L113.94249975681305,84.90693205987444L115.05958308776219,85.13468471018983L116.17666641871135,85.15228515618726L117.29374974966049,85.64570377225975L118.41083308060963,85.61010889697094L119.52791641155879,85.95132873594646L120.64499974250793,85.90467202201957L121.76208307345708,86.17381564800606L122.87916640440622,86.4669771017204L123.99624973535538,86.59125610115896L125.11333306630452,86.7475689730371L126.23041639725368,87.01446234828693L127.34749972820282,87.16731271313931L128.46458305915198,87.22970602901913L129.5816663901011,87.30959371847108L130.69874972105026,87.64672219247086L131.8158330519994,87.8551999677895L132.93291638294855,87.97458448246081L134.0499997138977,88.11972944327557L135.16708304484686,88.40509457373062L136.284166375796,88.24293256525756L137.40124970674515,88.5890241591949L138.5183330376943,88.73832109779985L139.63541636864346,88.83063441421511L140.7524996995926,89.22226138501193L141.86958303054175,89.17582818083835L142.98666636149088,89.18128712244021L144.10374969244003,89.54205838237843L145.22083302338916,89.60668300749037L146.33791635433832,89.7516688596672L147.45499968528748,89.86143487834465L148.57208301623663,89.96549950416241L149.68916634718576,90.16832892283401L150.80624967813492,90.40776848143653L151.92333300908408,90.34948926033786L153.0404163400332,90.50308970876914L154.15749967098236,90.64241962769711L155.27458300193152,90.83192938039218L156.39166633288067,90.90945317008037L157.5087496638298,91.03426253164542L158.62583299477896,91.24943423466044L159.7429163257281,91.16095467875948L160.85999965667725,91.19987189394061L161.97708298762637,91.51866877986862L163.09416631857553,91.53771256851024L164.2112496495247,91.87138990038699L165.32833298047385,91.86857898111663L166.44541631142297,91.83309017825312L167.56249964237213,92.07779168681054L168.6795829733213,92.18172372209668L169.79666630427042,92.08746321901705L170.91374963521957,92.38618589845765L172.03083296616873,92.51941286463017L173.1479162971179,92.60996840942624L174.26499962806702,92.64607091703611L175.38208295901617,92.75536718640154L176.4991662899653,92.98096050520195L177.61624962091446,92.88005153403677L178.7333329518636,93.17203482617015L179.85041628281274,93.18332017456152L180.9674996137619,93.34271672337508L182.08458294471106,93.3904190083513L183.2016662756602,93.46792385653498L184.31874960660934,93.48014491524951L185.4358329375585,93.82315662055235L186.55291626850763,93.89847940741564L187.6699995994568,93.67328386021008L188.78708293040594,93.84412107775205L189.9041662613551,94.02775517574585L191.02124959230423,94.24182827149889L192.1383329232534,94.33987707548198L193.25541625420252,94.2801658766418L194.37249958515167,94.38224922108705L195.4895829161008,94.43134560079577L196.60666624704996,94.63376588296978L197.72374957799911,94.74599808553538L198.84083290894827,94.5834724001756L199.9579162398974,94.7849077241147L201.07499957084656,94.99027151609071L202.19208290179571,94.9742280617646L203.30916623274484,95.08253179629332L204.426249563694,95.14869068327117L205.54333289464316,95.08082706088678L206.66041622559231,95.33235508767221L207.77749955654144,95.56422940937055L208.8945828874906,95.39519542305862L210.01166621843973,95.3104852265566L211.12874954938889,95.72446317268376L212.245832880338,95.70076356223177L213.36291621128717,95.70160835333326L214.47999954223633,95.94080924897887L215.59708287318549,95.78662540220847L216.7141662041346,96.0920761040536L217.83124953508377,96.08278340193743L218.94833286603293,96.23842574455567L220.06541619698206,96.24033883651191L221.1824995279312,96.21362752684169L222.29958285888037,96.32584836450457L223.41666618982953,96.55620736584154L224.53374952077866,96.51039544301612L225.6508328517278,96.58805939983773L226.76791618267694,96.75277093481883L227.8849995136261,96.68936993089869L229.00208284457523,96.58682062544231L230.11916617552438,96.80729216142127L231.23624950647354,97.04294341912035L232.3533328374227,97.11560303044851L233.47041616837183,97.01942943541263L234.58749949932098,97.00898130152092L235.70458283027014,97.20716626328489L236.82166616121927,97.28353083289663L237.93874949216843,97.28667891094739L239.05583282311758,97.3214933962501L240.17291615406674,97.55965250914727L241.28999948501587,97.40366164284592L242.40708281596503,97.58875044838666L243.52416614691415,97.73575546494502L244.6412494778633,97.6383279423101L245.75833280881244,97.66256170318947" fill="none"></path></g><g><path style="fill: none;" stroke="rgb(238, 51, 119)" stroke-width="2px" d="M27.92708327372869,-3.5463103030186574L29.044166604677837,0.23558079530226905L30.161249935626984,3.7966139509521213L31.27833326657613,5.295993142130214L32.395416597525276,8.754363343296575L33.512499928474426,11.191362161282086L34.629583259423576,12.752490657186428L35.74666659037272,14.78309570745347L36.86374992132187,16.11771411573875L37.98083325227102,17.49985297055693L39.09791658322017,19.515486655653547L40.21499991416931,20.711529016890637L41.33208324511846,21.980973496432966L42.449166576067604,22.006946087427025L43.566249907016754,23.758398820720686L44.6833332379659,24.129864454109338L45.80041656891505,25.365759740850734L46.9174998998642,26.601344386918043L48.03458323081335,26.80244255207674L49.15166656176249,26.978568237679923L50.26874989271164,28.278326701051668L51.38583322366079,28.829138075811443L52.50291655460993,29.448934410023014L53.61999988555908,29.452389340446956L54.73708321650823,29.816346561444988L55.85416654745738,30.95400362915811L56.971249878406525,31.49260152180517L58.088333209355675,31.801431388056187L59.20541654030482,31.969404650115138L60.32249987125397,31.13803928704769L61.43958320220311,33.16709871054613L62.55666653315226,32.77347151687229L63.67374986410141,32.80465680990949L64.79083319505055,33.27075419986633L65.9079165259997,34.05578106628275L67.02499985694885,34.40858552942103L68.142083187898,34.2464689805588L69.25916651884715,33.97957560530898L70.3762498497963,34.55840525355063L71.49333318074544,34.90301941013564L72.61041651169458,35.41495524102422L73.72749984264374,35.583708893069286L74.84458317359288,35.44354933624345L75.96166650454204,36.17510054710678L77.07874983549118,36.36215169251551L78.19583316644034,34.669311550800046L79.31291649738948,34.46943321853223L80.42999982833862,36.097948010907146L81.54708315928777,36.317805842139734L82.66416649023692,36.93822345769948L83.78124982118607,37.12501699864677L84.89833315213521,36.954331313140955L86.01541648308437,36.415771303502936L87.13249981403351,35.98004851018999L88.24958314498265,36.415710690688485L89.3666664759318,37.5968347229678L90.48374980688095,38.195545374350786L91.6008331378301,38.637943153855616L92.71791646877925,38.16957278335673L93.8349997997284,39.75804523518218L94.95208313067755,40.42142975958885L96.0691664616267,40.82350486427737L97.18624979257584,40.22197571702222L98.30333312352498,41.83293552301055L99.42041645447414,42.12459680956712L100.53749978542328,42.63694935355508L101.65458311637242,42.798088520784205L102.77166644732158,43.37833499356378L103.88874977827072,43.7916158923247L105.00583310921986,43.96574135505085L106.122916440169,44.32252353413773L107.23999977111816,44.8674100062845L108.3570831020673,45.23773157280033L109.47416643301646,45.23350382899207L110.5912497639656,44.49249701907371L111.70833309491476,45.1409707911244L112.8254164258639,46.653457503428456L113.94249975681305,46.897787758497344L115.05958308776219,47.1087961188195L116.17666641871135,47.11323600747832L117.29374974966049,47.544427992910755L118.41083308060963,47.776908442753665L119.52791641155879,47.929342094506666L120.64499974250793,48.42319257688217L121.76208307345708,48.8083794361431L122.87916640440622,48.94744796230873L123.99624973535538,49.27544663113122L125.11333306630452,49.38527705092403L126.23041639725368,49.812809537683734L127.34749972820282,49.8636182294008L128.46458305915198,50.22424932220558L129.5816663901011,50.406807542742825L130.69874972105026,50.627945819680775L131.8158330519994,50.843447104874414L132.93291638294855,51.15622438066683L134.0499997138977,51.32331118031438L135.16708304484686,51.446241544631306L136.284166375796,51.85715096702668L137.40124970674515,51.97405793290713L138.5183330376943,52.18113403689151L139.63541636864346,52.35655509852663L140.7524996995926,52.57782975429713L141.86958303054175,52.78925482771865L142.98666636149088,52.81840201486979L144.10374969244003,53.16330408232345L145.22083302338916,53.52666275177873L146.33791635433832,53.61247534384367L147.45499968528748,53.88562699218599L148.57208301623663,53.8513807520188L149.68916634718576,53.94319401271481L150.80624967813492,54.380227558140376L151.92333300908408,54.37927290631271L153.0404163400332,54.7637475650038L154.15749967098236,54.77311982143894L155.27458300193152,54.92511403028713L156.39166633288067,55.17531615175638L157.5087496638298,55.25884061007562L158.62583299477896,55.46952317652007L159.7429163257281,55.56698858216403L160.85999965667725,55.82864652556529L161.97708298762637,56.074196613525075L163.09416631857553,56.039420011231414L164.2112496495247,56.123702129731356L165.32833298047385,56.40740798439069L166.44541631142297,56.553310605386145L167.56249964237213,56.67495294739592L168.6795829733213,56.731504703282624L169.79666630427042,56.980100585168785L170.91374963521957,57.220422817881825L172.03083296616873,57.31114504791762L173.1479162971179,57.332147388126344L174.26499962806702,57.522115525230745L175.38208295901617,57.62083107017283L176.4991662899653,58.04552233125494L177.61624962091446,57.93402505906462L178.7333329518636,58.19875152619768L179.85041628281274,58.28548846368305L180.9674996137619,58.42194306222531L182.08458294471106,58.63564111618891L183.2016662756602,58.5822563798575L184.31874960660934,58.85852958814425L185.4358329375585,59.03479165257997L186.55291626850763,58.99620401957743L187.6699995994568,59.238670430601815L188.78708293040594,59.29851043167271L189.9041662613551,59.51230698145977L191.02124959230423,59.56494163421232L192.1383329232534,59.583701300286194L193.25541625420252,59.71369305748716L194.37249958515167,59.89708470422315L195.4895829161008,60.056397910416834L196.60666624704996,60.26070097813985L197.72374957799911,60.31767702372774L198.84083290894827,60.39551145409003L199.9579162398974,60.53183725040155L201.07499957084656,60.70934187753359L202.19208290179571,60.74798254674877L203.30916623274484,61.076617650123026L204.426249563694,61.11743280405679L205.54333289464316,61.25336461707437L206.66041622559231,61.28892160935415L207.77749955654144,61.35072395029303L208.8945828874906,61.394804619605566L210.01166621843973,61.57296083449299L211.12874954938889,61.67457821792712L212.245832880338,61.76374724459251L213.36291621128717,61.8810027341561L214.47999954223633,62.05640864258761L215.59708287318549,61.96498936518557L216.7141662041346,62.156169758579054L217.83124953508377,62.343667923494394L218.94833286603293,62.38128575146564L220.06541619698206,62.531400963065735L221.1824995279312,62.65008085376901L222.29958285888037,62.79304375326339L223.41666618982953,62.71810358479135L224.53374952077866,63.05891428726929L225.6508328517278,62.86796119192999L226.76791618267694,63.116738912259535L227.8849995136261,63.110116962280316L229.00208284457523,63.176366768479824L230.11916617552438,63.2514508923862L231.23624950647354,63.49920577147181L232.3533328374227,63.61993892126475L233.47041616837183,63.45127618844137L234.58749949932098,63.53555830694131L235.70458283027014,63.798830066527444L236.82166616121927,63.74421792070332L237.93874949216843,63.814877309154454L239.05583282311758,63.99876143500789L240.17291615406674,64.01910461085943L241.28999948501587,64.16168110366165L242.40708281596503,64.04141770318074L243.52416614691415,64.1889644467683L244.6412494778633,64.22034673145247L245.75833280881244,64.27932299991737" fill="none"></path></g></g></g></g></g></g><g transform="translate(61, 177)" clip-path="url(#clip_1)"><clipPath id="clip_1"><rect width="268" height="22"></rect></clipPath><g><g><line x1="0" y1="0" x2="0" y2="5" style="visibility: inherit;" fill="rgb(0, 0, 0)" stroke="rgb(204, 204, 204)" stroke-width="1px"></line><line x1="22.34166661898295" y1="0" x2="22.34166661898295" y2="5" style="visibility: inherit;" fill="rgb(0, 0, 0)" stroke="rgb(204, 204, 204)" stroke-width="1px"></line><line x1="44.6833332379659" y1="0" x2="44.6833332379659" y2="5" style="visibility: inherit;" fill="rgb(0, 0, 0)" stroke="rgb(204, 204, 204)" stroke-width="1px"></line><line x1="67.02499985694885" y1="0" x2="67.02499985694885" y2="5" style="visibility: inherit;" fill="rgb(0, 0, 0)" stroke="rgb(204, 204, 204)" stroke-width="1px"></line><line x1="89.3666664759318" y1="0" x2="89.3666664759318" y2="5" style="visibility: inherit;" fill="rgb(0, 0, 0)" stroke="rgb(204, 204, 204)" stroke-width="1px"></line><line x1="111.70833309491476" y1="0" x2="111.70833309491476" y2="5" style="visibility: inherit;" fill="rgb(0, 0, 0)" stroke="rgb(204, 204, 204)" stroke-width="1px"></line><line x1="134.0499997138977" y1="0" x2="134.0499997138977" y2="5" style="visibility: inherit;" fill="rgb(0, 0, 0)" stroke="rgb(204, 204, 204)" stroke-width="1px"></line><line x1="156.39166633288067" y1="0" x2="156.39166633288067" y2="5" style="visibility: inherit;" fill="rgb(0, 0, 0)" stroke="rgb(204, 204, 204)" stroke-width="1px"></line><line x1="178.7333329518636" y1="0" x2="178.7333329518636" y2="5" style="visibility: inherit;" fill="rgb(0, 0, 0)" stroke="rgb(204, 204, 204)" stroke-width="1px"></line><line x1="201.07499957084656" y1="0" x2="201.07499957084656" y2="5" style="visibility: inherit;" fill="rgb(0, 0, 0)" stroke="rgb(204, 204, 204)" stroke-width="1px"></line><line x1="223.41666618982953" y1="0" x2="223.41666618982953" y2="5" style="visibility: inherit;" fill="rgb(0, 0, 0)" stroke="rgb(204, 204, 204)" stroke-width="1px"></line><line x1="245.75833280881244" y1="0" x2="245.75833280881244" y2="5" style="visibility: inherit;" fill="rgb(0, 0, 0)" stroke="rgb(204, 204, 204)" stroke-width="1px"></line><line x1="268.0999994277954" y1="0" x2="268.0999994277954" y2="5" style="visibility: inherit;" fill="rgb(0, 0, 0)" stroke="rgb(204, 204, 204)" stroke-width="1px"></line></g><g transform="translate(0, 8)"><text style="text-anchor: middle; visibility: hidden; font-family: &quot;Helvetica Neue&quot;, sans-serif; font-size: 12px; font-weight: 200;" x="0" y="0" dx="0em" dy="0.95em" fill="rgb(50, 49, 63)" stroke="none" stroke-width="1px">-20</text><text style="text-anchor: middle; visibility: inherit; font-family: &quot;Helvetica Neue&quot;, sans-serif; font-size: 12px; font-weight: 200;" x="22.34166661898295" y="0" dx="0em" dy="0.95em" fill="rgb(50, 49, 63)" stroke="none" stroke-width="1px">0</text><text style="text-anchor: middle; visibility: hidden; font-family: &quot;Helvetica Neue&quot;, sans-serif; font-size: 12px; font-weight: 200;" x="44.6833332379659" y="0" dx="0em" dy="0.95em" fill="rgb(50, 49, 63)" stroke="none" stroke-width="1px">20</text><text style="text-anchor: middle; visibility: inherit; font-family: &quot;Helvetica Neue&quot;, sans-serif; font-size: 12px; font-weight: 200;" x="67.02499985694885" y="0" dx="0em" dy="0.95em" fill="rgb(50, 49, 63)" stroke="none" stroke-width="1px">40</text><text style="text-anchor: middle; visibility: hidden; font-family: &quot;Helvetica Neue&quot;, sans-serif; font-size: 12px; font-weight: 200;" x="89.3666664759318" y="0" dx="0em" dy="0.95em" fill="rgb(50, 49, 63)" stroke="none" stroke-width="1px">60</text><text style="text-anchor: middle; visibility: inherit; font-family: &quot;Helvetica Neue&quot;, sans-serif; font-size: 12px; font-weight: 200;" x="111.70833309491476" y="0" dx="0em" dy="0.95em" fill="rgb(50, 49, 63)" stroke="none" stroke-width="1px">80</text><text style="text-anchor: middle; visibility: hidden; font-family: &quot;Helvetica Neue&quot;, sans-serif; font-size: 12px; font-weight: 200;" x="134.0499997138977" y="0" dx="0em" dy="0.95em" fill="rgb(50, 49, 63)" stroke="none" stroke-width="1px">100</text><text style="text-anchor: middle; visibility: inherit; font-family: &quot;Helvetica Neue&quot;, sans-serif; font-size: 12px; font-weight: 200;" x="156.39166633288067" y="0" dx="0em" dy="0.95em" fill="rgb(50, 49, 63)" stroke="none" stroke-width="1px">120</text><text style="text-anchor: middle; visibility: hidden; font-family: &quot;Helvetica Neue&quot;, sans-serif; font-size: 12px; font-weight: 200;" x="178.7333329518636" y="0" dx="0em" dy="0.95em" fill="rgb(50, 49, 63)" stroke="none" stroke-width="1px">140</text><text style="text-anchor: middle; visibility: inherit; font-family: &quot;Helvetica Neue&quot;, sans-serif; font-size: 12px; font-weight: 200;" x="201.07499957084656" y="0" dx="0em" dy="0.95em" fill="rgb(50, 49, 63)" stroke="none" stroke-width="1px">160</text><text style="text-anchor: middle; visibility: hidden; font-family: &quot;Helvetica Neue&quot;, sans-serif; font-size: 12px; font-weight: 200;" x="223.41666618982953" y="0" dx="0em" dy="0.95em" fill="rgb(50, 49, 63)" stroke="none" stroke-width="1px">180</text><text style="text-anchor: middle; visibility: inherit; font-family: &quot;Helvetica Neue&quot;, sans-serif; font-size: 12px; font-weight: 200;" x="245.75833280881244" y="0" dx="0em" dy="0.95em" fill="rgb(50, 49, 63)" stroke="none" stroke-width="1px">200</text><text style="text-anchor: middle; visibility: hidden; font-family: &quot;Helvetica Neue&quot;, sans-serif; font-size: 12px; font-weight: 200;" x="268.0999994277954" y="0" dx="0em" dy="0.95em" fill="rgb(50, 49, 63)" stroke="none" stroke-width="1px">220</text></g><line x1="0" y1="0" x2="268.0999994277954" y2="0" fill="rgb(0, 0, 0)" stroke="rgb(204, 204, 204)" stroke-width="1px"></line></g></g></g></g></svg>